<?xml version="1.0" encoding="UTF-8"?>
<svg version="1.1" xmlns="http://www.w3.org/2000/svg" width="128" height="128">
<path d="M0 0 C1.2684375 0.804375 1.2684375 0.804375 2.5625 1.625 C8.36734866 7.28100639 10.33558454 12.42596004 10.5625 20.5625 C10.57389715 31.3328035 5.2464394 37.26917982 -1.99809265 44.55387878 C-3.07504464 45.62366912 -4.15251639 46.69293643 -5.23046875 47.76171875 C-6.34720741 48.88115734 -7.46335218 50.00118867 -8.57893372 51.1217804 C-10.91182365 53.46054421 -13.25173286 55.79198136 -15.59692383 58.1184082 C-18.58495083 61.08367393 -21.55469038 64.06650447 -24.51934338 67.05511761 C-26.8190941 69.3694061 -29.12839111 71.67398045 -31.44057655 73.97583961 C-32.53859401 75.0712104 -33.63370825 76.16950023 -34.72569847 77.27087975 C-48.31142353 90.9477062 -48.31142353 90.9477062 -57.58984375 92.6640625 C-65.34473506 92.57357369 -71.76831207 91.93723805 -78 87 C-83.63933998 80.71448565 -86.30996641 74.02447128 -85.9375 65.5625 C-85.27660083 54.74632083 -75.54361834 47.10034404 -68.34765625 39.94921875 C-67.20288558 38.80242354 -66.05856026 37.65518361 -64.91465759 36.50752258 C-62.52647668 34.11493984 -60.13300807 31.72781392 -57.7355957 29.34448242 C-54.67117873 26.29719478 -51.62048163 23.23658149 -48.57360172 20.17177105 C-46.21722643 17.80453312 -43.8537253 15.44451389 -41.4880352 13.08658791 C-40.36036756 11.96091339 -39.23490169 10.83302852 -38.11174202 9.70285606 C-36.54007655 8.12353095 -34.9590415 6.554207 -33.37524414 4.98706055 C-32.47987442 4.09407761 -31.5845047 3.20109467 -30.66200256 2.28105164 C-22.01789335 -5.12602592 -9.69952272 -6.23540746 0 0 Z " fill="#F8F0EE" transform="translate(118,36)"/>
<path d="M0 0 C1.2684375 0.804375 1.2684375 0.804375 2.5625 1.625 C8.36734866 7.28100639 10.33558454 12.42596004 10.5625 20.5625 C10.57034144 27.9726631 8.29564166 33.77218523 3.25097656 39.203125 C2.22440763 40.2290739 1.18720965 41.24447752 0.140625 42.25 C-0.40861633 42.79358154 -0.95785767 43.33716309 -1.52374268 43.8972168 C-3.256558 45.60788693 -5.00283103 47.30400537 -6.75 49 C-7.93712237 50.16702912 -9.12332927 51.33499025 -10.30859375 52.50390625 C-13.19527171 55.34680765 -16.09409632 58.17675879 -19 61 C-21.95265112 59.67005617 -24.02350216 58.22220684 -26.29980469 55.92724609 C-26.92014587 55.30675385 -27.54048706 54.6862616 -28.17962646 54.04696655 C-28.83706848 53.37920197 -29.4945105 52.71143738 -30.171875 52.0234375 C-31.1955014 50.99556625 -31.1955014 50.99556625 -32.23980713 49.94692993 C-34.41461598 47.76094155 -36.58236072 45.56809571 -38.75 43.375 C-40.2247999 41.89016745 -41.70005506 40.40578694 -43.17578125 38.921875 C-46.78915448 35.2864709 -50.39620853 31.64490176 -54 28 C-52.20723771 24.1441774 -49.74975539 21.44348883 -46.765625 18.46484375 C-46.24997986 17.94491348 -45.73433472 17.42498322 -45.20306396 16.88929749 C-44.11286158 15.79336532 -43.02004666 14.70002663 -41.92480469 13.60913086 C-40.26082885 11.94830833 -38.61060129 10.27463367 -36.9609375 8.59960938 C-35.89664535 7.53304327 -34.83156607 6.46726191 -33.765625 5.40234375 C-33.03403168 4.65693581 -33.03403168 4.65693581 -32.28765869 3.89646912 C-23.53297254 -4.74307279 -10.61056216 -6.82107567 0 0 Z " fill="#E83133" transform="translate(118,36)"/>
<path d="M0 0 C5.25306904 3.87413841 7.95418201 9.63305288 9.25 15.90234375 C9.80489527 24.08704904 8.32386702 30.71324439 3.125 37.21484375 C-2.49611159 43.08187897 -8.12424529 45.09531739 -16.1875 45.46484375 C-23.51844928 45.19935376 -29.4861619 43.32903447 -34.62890625 37.9296875 C-36.14745161 35.97204469 -37.49400769 34.03668204 -38.75 31.90234375 C-39.12382813 31.31066406 -39.49765625 30.71898437 -39.8828125 30.109375 C-42.12389117 24.40572883 -41.55786847 16.34527314 -40.16796875 10.421875 C-37.28235807 3.82054645 -31.15190497 -1.32274931 -24.875 -4.59765625 C-15.29945758 -6.12974304 -8.22926544 -5.1616598 0 0 Z " fill="#FFB045" transform="translate(40.75,33.09765625)"/>
<path d="M0 0 C2.9550182 1.92593599 5.38886742 3.77773484 7 7 C7.49384131 11.27995802 7.32985224 13.43925118 5.125 17.1875 C-0.32037448 23.00627159 -9.35516685 24.91941463 -17.0390625 25.203125 C-28.55423872 25.39865863 -39.30433334 24.92547619 -49 18 C-51.76483759 14.82043677 -53 13.17745448 -53 8.9375 C-51.54583143 4.66587983 -49.91347382 2.0481897 -45.875 -0.1640625 C-32.5615455 -6.25146439 -13.1275651 -7.06344766 0 0 Z " fill="#DF7A17" transform="translate(91,4)"/>
<path d="M0 0 C0.66 0.33 1.32 0.66 2 1 C0.63886987 4.04581486 -0.89330096 6.13839026 -3.25634766 8.48339844 C-3.91688141 9.14378113 -4.57741516 9.80416382 -5.25796509 10.48455811 C-5.96947723 11.18574768 -6.68098938 11.88693726 -7.4140625 12.609375 C-8.14370209 13.33618469 -8.87334167 14.06299438 -9.62509155 14.81182861 C-11.9537388 17.12929198 -14.28924826 19.4396995 -16.625 21.75 C-18.20618653 23.32115444 -19.78692125 24.89276371 -21.3671875 26.46484375 C-25.2395669 30.31518653 -29.11760171 34.15976117 -33 38 C-39.39117039 30.0787779 -39.81447944 24.01703933 -39 14 C-37.31986016 6.83967248 -31.73261552 2.21872058 -26 -2 C-17.47766966 -6.44643322 -8.03166251 -4.39534937 0 0 Z " fill="#FFCF38" transform="translate(39,32)"/>
<path d="M0 0 C1.17539996 0.92652701 2.34010577 1.86663387 3.5 2.8125 C4.47453125 3.59560547 4.47453125 3.59560547 5.46875 4.39453125 C7 6 7 6 7 9 C5.40905652 10.90294863 3.81952598 12.62442843 2.06640625 14.3671875 C1.55504623 14.88378937 1.04368622 15.40039124 0.51683044 15.93264771 C-0.57149433 17.02740397 -1.66373354 18.1182804 -2.75952148 19.20556641 C-4.412128 20.8497572 -6.04538326 22.51151058 -7.67773438 24.17578125 C-20.36725326 36.95803379 -20.36725326 36.95803379 -29.58984375 38.6640625 C-37.36912468 38.57328909 -43.63726638 37.7559827 -50 33 C-52.125 30.1875 -52.125 30.1875 -53 28 C-52.236875 28.309375 -51.47375 28.61875 -50.6875 28.9375 C-44.24686113 31.48379909 -37.72947893 32.1046433 -31 30.0625 C-25.40553368 27.62047105 -21.29097284 23.22052208 -17 19 C-16.34241699 18.36143066 -15.68483398 17.72286133 -15.00732422 17.06494141 C-12.80880804 14.92684851 -10.62108355 12.77833666 -8.4375 10.625 C-7.36435547 9.57179565 -7.36435547 9.57179565 -6.26953125 8.49731445 C-5.60179687 7.83046631 -4.9340625 7.16361816 -4.24609375 6.4765625 C-3.64466553 5.87924316 -3.0432373 5.28192383 -2.42358398 4.66650391 C-0.77319142 2.94580939 -0.77319142 2.94580939 0 0 Z " fill="#CFCDCD" transform="translate(90,90)"/>
<path d="M0 0 C2.94226854 4.7480385 4.72138533 8.44850092 3.6015625 14.05859375 C1.1089715 22.1028647 -4.14654985 26.77685568 -11.25 30.875 C-18.05027686 32.91508306 -24.49417872 32.94758329 -31 30 C-25.95678592 23.86988634 -20.43836272 18.25218459 -14.83056641 12.64526367 C-13.23440256 11.04688087 -11.64644686 9.44061854 -10.05859375 7.83398438 C-9.04475921 6.81722113 -8.03045365 5.80092728 -7.015625 4.78515625 C-6.10071289 3.86613525 -5.18580078 2.94711426 -4.24316406 2.00024414 C-2 0 -2 0 0 0 Z " fill="#FFCF38" transform="translate(45,37)"/>
<path d="M0 0 C4.57991532 1.96282085 6.82015556 4.83125807 9.046875 9.13671875 C11.3447065 16.0396306 11.54091543 24.22739172 8.33081055 30.84350586 C6.17729709 34.99840139 3.49493131 38.02729805 0.140625 41.25 C-0.40861633 41.79358154 -0.95785767 42.33716309 -1.52374268 42.8972168 C-3.256558 44.60788693 -5.00283103 46.30400537 -6.75 48 C-7.93712237 49.16702912 -9.12332927 50.33499025 -10.30859375 51.50390625 C-13.19527171 54.34680765 -16.09409632 57.17675879 -19 60 C-21.8605891 58.64062915 -23.85927699 57.35479531 -26 55 C-24.421457 51.1101401 -21.9262687 48.76939089 -18.9140625 45.89453125 C-17.89018647 44.90084227 -16.86676346 43.90668635 -15.84375 42.91210938 C-14.24056835 41.36440367 -12.63387092 39.82093007 -11.01855469 38.28588867 C-4.05006731 31.64398222 1.90280945 25.79912566 3.49609375 15.92578125 C3.37444392 10.500199 2.91973271 6.74456566 0 2 C0 1.34 0 0.68 0 0 Z " fill="#C2171D" transform="translate(118,37)"/>
<path d="M0 0 C9.13525331 0 17.48099801 0.71827494 24.75 6.75 C25.4925 7.4925 26.235 8.235 27 9 C25.8263126 12.28632472 24.06149877 14.20417484 21.10546875 16.05078125 C14.42156124 19.06411989 7.25199173 20 0 20 C0 13.4 0 6.8 0 0 Z " fill="#FE9421" transform="translate(70,0)"/>
<path d="M0 0 C0 6.6 0 13.2 0 20 C-9.21220135 19.35125343 -17.69834467 18.02386565 -25 12 C-25.875 9.75 -25.875 9.75 -26 8 C-18.43930732 0.70002086 -10.15634292 0 0 0 Z " fill="#FE9421" transform="translate(66,0)"/>
<path d="M0 0 C0.99 0.99 1.98 1.98 3 3 C-8.22 14.22 -19.44 25.44 -31 37 C-32.32 36.34 -33.64 35.68 -35 35 C-23.45 23.45 -11.9 11.9 0 0 Z " fill="#FF9722" transform="translate(41,34)"/>
<path d="M0 0 C0.28101562 0.5775 0.56203125 1.155 0.8515625 1.75 C3.55793445 7.05227974 6.51564019 12.01390239 11 16 C9.02 17.65 7.04 19.3 5 21 C0.06753896 14.02409081 -0.6422101 8.43435936 0 0 Z " fill="#FFB143" transform="translate(0,49)"/>
</svg>
